<svg xmlns="http://www.w3.org/2000/svg" xmlns:xlink="http://www.w3.org/1999/xlink" width="1000" zoomAndPan="magnify" viewBox="0 0 750 779.249976" height="1039" preserveAspectRatio="xMidYMid meet" version="1.0"><defs><g/><clipPath id="f038f5ae0c"><path d="M 0.359375 14.609375 L 749.636719 14.609375 L 749.636719 763.890625 L 0.359375 763.890625 Z M 0.359375 14.609375 " clip-rule="nonzero"/></clipPath><clipPath id="4ca12d88ab"><path d="M 375 14.609375 C 168.09375 14.609375 0.359375 182.34375 0.359375 389.25 C 0.359375 596.15625 168.09375 763.890625 375 763.890625 C 581.90625 763.890625 749.640625 596.15625 749.640625 389.25 C 749.640625 182.34375 581.90625 14.609375 375 14.609375 Z M 375 14.609375 " clip-rule="nonzero"/></clipPath><clipPath id="cb824a9560"><path d="M 0.359375 0.609375 L 749.636719 0.609375 L 749.636719 749.890625 L 0.359375 749.890625 Z M 0.359375 0.609375 " clip-rule="nonzero"/></clipPath><clipPath id="987c383680"><path d="M 375 0.609375 C 168.09375 0.609375 0.359375 168.34375 0.359375 375.25 C 0.359375 582.15625 168.09375 749.890625 375 749.890625 C 581.90625 749.890625 749.640625 582.15625 749.640625 375.25 C 749.640625 168.34375 581.90625 0.609375 375 0.609375 Z M 375 0.609375 " clip-rule="nonzero"/></clipPath><clipPath id="9f12507926"><rect x="0" width="750" y="0" height="750"/></clipPath><clipPath id="4f2006d141"><path d="M 131.101562 574.875 L 328.328125 574.875 L 328.328125 648.046875 L 131.101562 648.046875 Z M 131.101562 574.875 " clip-rule="nonzero"/></clipPath><clipPath id="8b34dceb8e"><path d="M 328.09375 591.355469 L 328.09375 631.5625 C 328.09375 635.933594 326.359375 640.128906 323.265625 643.21875 C 320.175781 646.308594 315.984375 648.046875 311.609375 648.046875 L 147.585938 648.046875 C 143.214844 648.046875 139.023438 646.308594 135.929688 643.21875 C 132.839844 640.128906 131.101562 635.933594 131.101562 631.5625 L 131.101562 591.355469 C 131.101562 586.984375 132.839844 582.792969 135.929688 579.703125 C 139.023438 576.609375 143.214844 574.875 147.585938 574.875 L 311.609375 574.875 C 315.984375 574.875 320.175781 576.609375 323.265625 579.703125 C 326.359375 582.792969 328.09375 586.984375 328.09375 591.355469 Z M 328.09375 591.355469 " clip-rule="nonzero"/></clipPath><clipPath id="912072ac3e"><path d="M 0.101562 0.875 L 197.125 0.875 L 197.125 74.046875 L 0.101562 74.046875 Z M 0.101562 0.875 " clip-rule="nonzero"/></clipPath><clipPath id="4050228afb"><path d="M 197.09375 17.355469 L 197.09375 57.5625 C 197.09375 61.933594 195.359375 66.128906 192.265625 69.21875 C 189.175781 72.308594 184.984375 74.046875 180.609375 74.046875 L 16.585938 74.046875 C 12.214844 74.046875 8.023438 72.308594 4.929688 69.21875 C 1.839844 66.128906 0.101562 61.933594 0.101562 57.5625 L 0.101562 17.355469 C 0.101562 12.984375 1.839844 8.792969 4.929688 5.703125 C 8.023438 2.609375 12.214844 0.875 16.585938 0.875 L 180.609375 0.875 C 184.984375 0.875 189.175781 2.609375 192.265625 5.703125 C 195.359375 8.792969 197.09375 12.984375 197.09375 17.355469 Z M 197.09375 17.355469 " clip-rule="nonzero"/></clipPath><clipPath id="8cbcc69f97"><rect x="0" width="198" y="0" height="75"/></clipPath><clipPath id="ed6bcc7c9c"><rect x="0" width="466" y="0" height="74"/></clipPath><clipPath id="fb42f55178"><path d="M 321.140625 574.875 L 334.429688 574.875 L 334.429688 648.046875 L 321.140625 648.046875 Z M 321.140625 574.875 " clip-rule="nonzero"/></clipPath><clipPath id="efe2dbb078"><path d="M 0.140625 0.875 L 13.429688 0.875 L 13.429688 74.046875 L 0.140625 74.046875 Z M 0.140625 0.875 " clip-rule="nonzero"/></clipPath><clipPath id="42492689a1"><rect x="0" width="14" y="0" height="75"/></clipPath><clipPath id="307d30c1cc"><path d="M 311.292969 574.875 L 321.140625 574.875 L 321.140625 648.046875 L 311.292969 648.046875 Z M 311.292969 574.875 " clip-rule="nonzero"/></clipPath><clipPath id="791580ca01"><path d="M 0.292969 0.875 L 10.140625 0.875 L 10.140625 74.046875 L 0.292969 74.046875 Z M 0.292969 0.875 " clip-rule="nonzero"/></clipPath><clipPath id="524fca1cd0"><rect x="0" width="11" y="0" height="75"/></clipPath></defs><g clip-path="url(#f038f5ae0c)"><g clip-path="url(#4ca12d88ab)"><g transform="matrix(1, 0, 0, 1, 0.000000000000000056, 14)"><g clip-path="url(#9f12507926)"><g clip-path="url(#cb824a9560)"><g clip-path="url(#987c383680)"><path fill="#b11e23" d="M 0.359375 0.609375 L 749.640625 0.609375 L 749.640625 749.890625 L 0.359375 749.890625 Z M 0.359375 0.609375 " fill-opacity="1" fill-rule="nonzero"/></g></g></g></g></g></g><g clip-path="url(#4f2006d141)"><g clip-path="url(#8b34dceb8e)"><g transform="matrix(1, 0, 0, 1, 131, 574)"><g clip-path="url(#8cbcc69f97)"><g clip-path="url(#912072ac3e)"><g clip-path="url(#4050228afb)"><path fill="#fafafa" d="M 0.101562 0.875 L 197.042969 0.875 L 197.042969 74.046875 L 0.101562 74.046875 Z M 0.101562 0.875 " fill-opacity="1" fill-rule="nonzero"/></g></g></g></g></g></g><g transform="matrix(1, 0, 0, 1, 146, 575)"><g clip-path="url(#ed6bcc7c9c)"><g fill="#b11e23" fill-opacity="1"><g transform="translate(1.51572, 61.023831)"><g><path d="M 51.828125 -49.359375 L 51.828125 -39.484375 L 12.34375 -39.484375 L 12.34375 -29.625 L 51.828125 -29.625 L 51.828125 -19.75 L 12.34375 -19.75 L 12.34375 0 L 2.46875 0 L 2.46875 -39.484375 C 2.46875 -41.296875 2.910156 -42.953125 3.796875 -44.453125 C 4.679688 -45.953125 5.875 -47.144531 7.375 -48.03125 C 8.875 -48.914062 10.53125 -49.359375 12.34375 -49.359375 Z M 51.828125 -49.359375 "/></g></g></g><g fill="#b11e23" fill-opacity="1"><g transform="translate(55.818188, 61.023831)"><g><path d="M 51.828125 0 L 2.46875 0 L 2.46875 -9.875 L 22.21875 -9.875 L 22.21875 -39.484375 L 2.46875 -39.484375 L 2.46875 -49.359375 L 51.828125 -49.359375 L 51.828125 -39.484375 L 32.078125 -39.484375 L 32.078125 -9.875 L 51.828125 -9.875 Z M 51.828125 0 "/></g></g></g><g fill="#b11e23" fill-opacity="1"><g transform="translate(110.120656, 61.023831)"><g><path d="M 51.828125 -49.359375 L 51.828125 -39.484375 L 32.078125 -39.484375 L 32.078125 0 L 22.21875 0 L 22.21875 -39.484375 L 2.46875 -39.484375 L 2.46875 -49.359375 Z M 51.828125 -49.359375 "/></g></g></g><g fill="#ffffff" fill-opacity="1"><g transform="translate(164.454371, 61.023831)"><g/></g></g><g fill="#ffffff" fill-opacity="1"><g transform="translate(191.605604, 61.023831)"><g><path d="M 51.828125 -49.359375 L 51.828125 -39.484375 L 12.34375 -39.484375 L 12.34375 -29.625 L 41.953125 -29.625 C 43.765625 -29.625 45.421875 -29.179688 46.921875 -28.296875 C 48.421875 -27.410156 49.613281 -26.210938 50.5 -24.703125 C 51.382812 -23.203125 51.828125 -21.550781 51.828125 -19.75 L 51.828125 -9.875 C 51.828125 -8.0625 51.382812 -6.40625 50.5 -4.90625 C 49.613281 -3.40625 48.421875 -2.210938 46.921875 -1.328125 C 45.421875 -0.441406 43.765625 0 41.953125 0 L 2.46875 0 L 2.46875 -9.875 L 41.953125 -9.875 L 41.953125 -19.75 L 12.34375 -19.75 C 10.53125 -19.75 8.875 -20.1875 7.375 -21.0625 C 5.875 -21.945312 4.679688 -23.140625 3.796875 -24.640625 C 2.910156 -26.148438 2.46875 -27.8125 2.46875 -29.625 L 2.46875 -39.484375 C 2.46875 -41.296875 2.910156 -42.953125 3.796875 -44.453125 C 4.679688 -45.953125 5.875 -47.144531 7.375 -48.03125 C 8.875 -48.914062 10.53125 -49.359375 12.34375 -49.359375 Z M 51.828125 -49.359375 "/></g></g></g><g fill="#ffffff" fill-opacity="1"><g transform="translate(245.908072, 61.023831)"><g><path d="M 41.953125 -49.359375 C 43.765625 -49.359375 45.421875 -48.914062 46.921875 -48.03125 C 48.421875 -47.144531 49.613281 -45.953125 50.5 -44.453125 C 51.382812 -42.953125 51.828125 -41.296875 51.828125 -39.484375 L 51.828125 -29.625 C 51.828125 -27.8125 51.382812 -26.148438 50.5 -24.640625 C 49.613281 -23.140625 48.421875 -21.945312 46.921875 -21.0625 C 45.421875 -20.1875 43.765625 -19.75 41.953125 -19.75 L 12.34375 -19.75 L 12.34375 0 L 2.46875 0 L 2.46875 -49.359375 Z M 12.34375 -29.625 L 41.953125 -29.625 L 41.953125 -39.484375 L 12.34375 -39.484375 Z M 12.34375 -29.625 "/></g></g></g><g fill="#ffffff" fill-opacity="1"><g transform="translate(300.21054, 61.023831)"><g><path d="M 12.34375 -49.359375 L 41.953125 -49.359375 C 43.765625 -49.359375 45.421875 -48.914062 46.921875 -48.03125 C 48.421875 -47.144531 49.613281 -45.953125 50.5 -44.453125 C 51.382812 -42.953125 51.828125 -41.296875 51.828125 -39.484375 L 51.828125 0 L 41.953125 0 L 41.953125 -19.75 L 12.34375 -19.75 L 12.34375 0 L 2.46875 0 L 2.46875 -39.484375 C 2.46875 -41.296875 2.910156 -42.953125 3.796875 -44.453125 C 4.679688 -45.953125 5.875 -47.144531 7.375 -48.03125 C 8.875 -48.914062 10.53125 -49.359375 12.34375 -49.359375 Z M 12.34375 -39.484375 L 12.34375 -29.625 L 41.953125 -29.625 L 41.953125 -39.484375 Z M 12.34375 -39.484375 "/></g></g></g><g fill="#ffffff" fill-opacity="1"><g transform="translate(354.513008, 61.023831)"><g><path d="M 51.828125 0 L 12.34375 0 C 10.53125 0 8.875 -0.441406 7.375 -1.328125 C 5.875 -2.210938 4.679688 -3.40625 3.796875 -4.90625 C 2.910156 -6.40625 2.46875 -8.0625 2.46875 -9.875 L 2.46875 -39.484375 C 2.46875 -41.296875 2.910156 -42.953125 3.796875 -44.453125 C 4.679688 -45.953125 5.875 -47.144531 7.375 -48.03125 C 8.875 -48.914062 10.53125 -49.359375 12.34375 -49.359375 L 51.828125 -49.359375 L 51.828125 -39.484375 L 12.34375 -39.484375 L 12.34375 -9.875 L 51.828125 -9.875 Z M 51.828125 0 "/></g></g></g><g fill="#ffffff" fill-opacity="1"><g transform="translate(408.815476, 61.023831)"><g><path d="M 51.828125 -49.359375 L 51.828125 -39.484375 L 12.34375 -39.484375 L 12.34375 -29.625 L 51.828125 -29.625 L 51.828125 -19.75 L 12.34375 -19.75 L 12.34375 -9.875 L 51.828125 -9.875 L 51.828125 0 L 12.34375 0 C 10.53125 0 8.875 -0.441406 7.375 -1.328125 C 5.875 -2.210938 4.679688 -3.40625 3.796875 -4.90625 C 2.910156 -6.40625 2.46875 -8.0625 2.46875 -9.875 L 2.46875 -39.484375 C 2.46875 -41.296875 2.910156 -42.953125 3.796875 -44.453125 C 4.679688 -45.953125 5.875 -47.144531 7.375 -48.03125 C 8.875 -48.914062 10.53125 -49.359375 12.34375 -49.359375 Z M 51.828125 -49.359375 "/></g></g></g></g></g><path fill="#ffffff" d="M 209.8125 480.171875 C 213.640625 479.964844 216.925781 476.203125 220.480469 469.84375 C 224.039062 463.484375 236.828125 459.652344 238.742188 459.175781 C 240.65625 458.695312 240.179688 459.585938 240.179688 460.269531 C 240.179688 460.953125 239.289062 461.703125 237.992188 462.320312 C 236.691406 462.9375 235.800781 462.867188 234.160156 463.484375 C 232.519531 464.097656 232.585938 466.902344 233.40625 465.605469 C 234.230469 464.304688 237.445312 464.578125 240.246094 463.277344 C 243.050781 461.980469 244.007812 457.601562 244.28125 456.917969 C 244.554688 456.234375 245.308594 456.917969 247.496094 456.917969 C 249.6875 456.917969 248.933594 455.753906 248.386719 455.207031 C 247.839844 454.660156 248.386719 454.320312 248.726562 453.839844 C 249.070312 453.359375 253.722656 452.0625 264.320312 450.558594 C 274.921875 449.050781 286.550781 450.421875 298.996094 451.789062 C 311.445312 453.15625 317.738281 452.949219 326.355469 451.925781 C 334.972656 450.898438 347.078125 453.019531 351.25 453.292969 C 355.421875 453.566406 360.824219 451.308594 362.738281 449.601562 C 364.65625 447.890625 365.75 445.699219 370.261719 442.691406 C 374.777344 439.683594 380.726562 433.320312 380.726562 433.320312 C 380.726562 433.320312 381 433.457031 382.164062 433.320312 C 383.328125 433.183594 383.328125 431.75 385.652344 429.902344 C 387.976562 428.054688 394.953125 420.394531 400.972656 413.488281 C 406.992188 406.578125 413.554688 395.019531 413.554688 395.019531 C 413.554688 395.019531 416.359375 397.960938 421.625 401.929688 C 426.894531 405.894531 429.972656 406.851562 432.84375 409.179688 C 435.714844 411.503906 435.648438 410.476562 435.648438 410.476562 C 435.648438 410.476562 438.589844 411.367188 444.742188 413.964844 C 450.898438 416.566406 459.859375 423.472656 460.953125 424.429688 C 462.046875 425.386719 460.953125 431.953125 460.269531 441.597656 C 459.585938 451.242188 462.390625 459.3125 465.605469 464.507812 C 468.816406 469.707031 475.179688 491.730469 477.230469 497.886719 C 479.28125 504.039062 480.582031 515.804688 480.445312 516.28125 C 480.308594 516.761719 479.898438 517.515625 479.695312 517.992188 C 479.488281 518.472656 478.941406 520.453125 478.53125 522.984375 C 478.121094 525.515625 478.121094 530.507812 479.554688 532.972656 C 480.992188 535.433594 478.597656 535.910156 478.734375 539.46875 C 478.871094 543.023438 491.113281 542.546875 492.550781 542.546875 C 493.988281 542.546875 503.90625 542.136719 513.617188 541.246094 C 523.328125 540.355469 531.332031 537.691406 539.402344 533.519531 C 547.472656 529.347656 544.597656 525.996094 542.820312 524.214844 C 541.039062 522.4375 537.210938 522.847656 529.894531 522.78125 C 522.574219 522.710938 514.710938 517.378906 512.453125 515.96875 C 510.195312 514.558594 510.46875 514.230469 511.019531 513.683594 C 511.566406 513.136719 514.367188 516.28125 516.148438 515.941406 C 517.925781 515.597656 515.324219 514.847656 512.726562 512.792969 C 510.128906 510.742188 509.714844 512.382812 507.664062 511.015625 C 505.613281 509.648438 506.847656 509.101562 505.683594 508.210938 C 504.519531 507.324219 503.835938 507.9375 503.355469 507.734375 C 502.878906 507.527344 501.371094 506.367188 501.371094 506.367188 C 501.371094 506.367188 498.84375 498.980469 495.765625 489.882812 C 492.6875 480.785156 493.097656 468.75 493.074219 460.542969 C 493.046875 452.335938 489.816406 438.519531 489.472656 431.953125 C 489.128906 425.386719 489.269531 421.488281 490.636719 418.136719 C 492.003906 414.789062 491.25 410.203125 488.515625 406.648438 C 485.777344 403.09375 486.261719 399.191406 481.265625 394.199219 C 476.273438 389.207031 473.675781 385.035156 473.402344 384.558594 C 473.128906 384.078125 472.101562 383.734375 472.441406 383.050781 C 472.785156 382.367188 472.511719 382.300781 471.351562 381.273438 C 470.1875 380.25 466.21875 374.980469 461.84375 371.082031 C 457.464844 367.183594 450.078125 359.25 450.007812 358.910156 C 449.941406 358.566406 445.429688 354.601562 444.742188 353.644531 C 444.058594 352.683594 439.546875 349.265625 438.453125 348.648438 C 437.355469 348.035156 437.90625 345.710938 438.109375 344.753906 C 438.316406 343.792969 439.683594 335.859375 440.570312 333.46875 C 441.460938 331.074219 442.488281 327.652344 442.964844 325.601562 C 443.445312 323.550781 445.496094 318.421875 447.546875 312.8125 C 449.601562 307.203125 448.230469 306.519531 448.230469 306.519531 C 448.230469 306.519531 453.15625 305.699219 456.300781 304.535156 C 459.449219 303.375 461.566406 300.914062 464.234375 299.75 C 466.902344 298.585938 471.828125 297.289062 473.261719 296.191406 C 474.699219 295.097656 476.753906 294.414062 477.710938 294.414062 C 478.667969 294.414062 481.472656 293.664062 484.753906 292.089844 C 488.039062 290.515625 490.292969 286.960938 490.566406 286.480469 C 490.839844 286.003906 492.484375 285.523438 492.960938 283.949219 C 493.441406 282.378906 492.277344 281.148438 491.457031 281.007812 C 490.636719 280.875 491.796875 279.4375 492.070312 278.820312 C 492.34375 278.207031 492.484375 276.703125 491.664062 275.8125 C 490.839844 274.921875 489.746094 275.675781 489.746094 275.675781 C 489.746094 275.675781 490.019531 274.648438 489.746094 272.9375 C 489.472656 271.230469 488.585938 270.613281 487.898438 270.410156 C 487.214844 270.203125 486.875 269.585938 487.078125 269.519531 C 487.285156 269.449219 487.011719 266.097656 485.230469 265.621094 C 483.453125 265.140625 481.605469 267.058594 481.605469 267.058594 C 481.605469 267.058594 481.472656 265.074219 480.992188 263.570312 C 480.515625 262.066406 478.871094 261.996094 478.394531 263.703125 C 477.914062 265.414062 477.09375 265.757812 476.613281 266.375 C 476.136719 266.988281 475.453125 267.125 474.632812 268.90625 C 473.8125 270.683594 472.304688 271.09375 471.898438 271.5 C 471.484375 271.914062 470.046875 273.144531 469.640625 274.714844 C 469.230469 276.289062 468.066406 279.027344 466.765625 280.941406 C 465.464844 282.855469 461.707031 282.785156 458.558594 281.691406 C 455.414062 280.601562 453.363281 279.574219 453.363281 279.574219 C 453.363281 279.574219 453.839844 275.46875 455.550781 272.734375 C 457.261719 269.996094 458.285156 257.550781 458.21875 256.730469 C 458.148438 255.910156 458.285156 253.996094 459.929688 250.164062 C 461.566406 246.335938 459.722656 238.945312 458.695312 235.734375 C 457.671875 232.519531 458.96875 232.792969 457.398438 227.320312 C 455.824219 221.851562 449.601562 219.113281 449.601562 219.113281 C 449.601562 219.113281 453.363281 218.15625 458.765625 218.566406 C 464.167969 218.976562 464.785156 215.285156 464.167969 213.640625 C 463.554688 212 464.03125 211.246094 465.332031 209.332031 C 466.628906 207.417969 464.167969 207.007812 463.140625 205.433594 C 462.117188 203.863281 464.304688 203.449219 466.082031 203.316406 C 467.859375 203.175781 467.996094 201.878906 468.136719 201.125 C 468.269531 200.375 468.957031 198.597656 469.230469 198.597656 C 469.503906 198.597656 471.007812 198.871094 472.511719 197.5 C 474.015625 196.132812 471.757812 192.851562 469.777344 190.183594 C 467.792969 187.515625 468.957031 187.308594 468.886719 185.804688 C 468.816406 184.300781 469.707031 182.316406 468.886719 181.359375 C 468.066406 180.402344 467.519531 178.28125 467.519531 176.367188 C 467.519531 174.453125 466.695312 172.742188 466.972656 172.742188 C 467.246094 172.742188 468.613281 171.101562 468.507812 169.597656 C 468.402344 168.09375 467.726562 165.355469 467.519531 164.605469 C 467.3125 163.851562 467.792969 163.371094 468.339844 162.757812 C 468.886719 162.140625 467.929688 159.0625 467.859375 160.226562 C 467.792969 161.386719 465.808594 159.542969 464.785156 158.585938 C 463.757812 157.628906 464.441406 157.832031 464.03125 156.328125 C 463.621094 154.824219 461.773438 154.6875 461.773438 154.6875 C 461.773438 154.6875 462.457031 154.960938 463.347656 156.738281 C 464.238281 158.519531 457.054688 154.6875 454.25 152.839844 C 451.445312 150.992188 450.898438 150.71875 444.46875 149.898438 C 438.042969 149.078125 443.855469 149.558594 442.898438 148.667969 C 441.941406 147.78125 441.1875 149.011719 436.671875 149.695312 C 432.160156 150.375 437.015625 148.667969 436.058594 148.667969 C 435.101562 148.667969 432.570312 150.992188 432.433594 150.242188 C 432.296875 149.488281 431.542969 150.035156 431.542969 150.035156 C 432.433594 150.242188 430.519531 152.15625 428.535156 152.15625 C 426.550781 152.15625 426.074219 153.933594 426.074219 153.933594 C 426.347656 153.796875 431.886719 151.953125 428.261719 153.933594 C 424.636719 155.917969 420.257812 162.003906 419.234375 169.941406 C 418.207031 177.871094 419.300781 186.695312 420.667969 192.578125 C 422.039062 198.457031 419.710938 204.339844 419.507812 205.710938 C 419.300781 207.074219 418.070312 206.871094 412.53125 208.855469 C 406.992188 210.839844 407.265625 211.726562 406.035156 213.4375 C 404.800781 215.144531 403.707031 214.734375 401.246094 215.144531 C 398.785156 215.558594 392.832031 219.605469 392.832031 219.605469 C 390.027344 221.3125 385.515625 223.355469 378.332031 226.910156 C 371.152344 230.46875 363.285156 236.144531 357.0625 239.90625 C 350.839844 243.667969 348.035156 247.429688 344.480469 249.683594 C 340.921875 251.941406 344.207031 260.011719 347.007812 268.765625 C 349.8125 277.519531 356.652344 284.15625 361.03125 289.148438 C 365.40625 294.140625 372.792969 304.261719 375.050781 306.179688 C 377.308594 308.09375 375.1875 311.648438 375.1875 315.136719 C 375.1875 318.625 378.675781 321.5 378.8125 322.113281 C 378.949219 322.730469 379.839844 325.054688 379.976562 325.328125 C 380.113281 325.601562 380.523438 326.355469 379.839844 327.242188 C 379.15625 328.132812 376.625 332.238281 375.050781 335.382812 C 373.476562 338.527344 372.929688 341.46875 372.929688 341.46875 C 367.871094 349.882812 371.835938 365.339844 372.246094 367.664062 C 372.65625 369.988281 371.015625 371.015625 370.398438 372.3125 C 369.785156 373.613281 364.722656 381.207031 360.414062 387.773438 C 356.105469 394.335938 350.019531 408.632812 349.402344 409.589844 C 348.789062 410.546875 349.199219 412.394531 349.199219 412.394531 C 349.199219 412.394531 347.28125 415.265625 345.640625 416.90625 C 344 418.546875 341.8125 421.421875 340.375 422.378906 C 338.9375 423.335938 336.410156 422.171875 329.707031 420.054688 C 323.003906 417.933594 316.027344 418.753906 310.417969 418.546875 C 304.8125 418.34375 298.3125 422.242188 295.234375 423.542969 C 292.160156 424.839844 281.078125 427.03125 273.828125 428.738281 C 266.578125 430.449219 256.386719 432.023438 256.183594 432.023438 C 255.976562 432.023438 255.566406 430.515625 253.175781 428.738281 C 250.78125 426.960938 247.90625 424.703125 244.417969 422.445312 C 240.929688 420.191406 241.273438 418 237.238281 416.429688 C 233.203125 414.855469 229.511719 423.335938 228.277344 426.6875 C 227.046875 430.039062 221.027344 439.75 217.128906 445.632812 C 213.230469 451.515625 208.445312 463.550781 206.53125 468.886719 C 204.613281 474.21875 205.980469 480.375 209.8125 480.171875 Z M 374.570312 270.546875 C 373.683594 263.773438 372.246094 258.234375 372.453125 258.234375 C 372.65625 258.234375 383.738281 258.441406 385.652344 257.753906 C 385.652344 257.753906 384.832031 270.476562 385.652344 280.394531 C 386.472656 290.308594 388.457031 299.132812 388.457031 299.132812 C 388.457031 299.132812 385.71875 295.03125 382.027344 289.285156 C 378.332031 283.539062 375.460938 277.316406 374.570312 270.546875 " fill-opacity="1" fill-rule="nonzero"/><g clip-path="url(#fb42f55178)"><g transform="matrix(1, 0, 0, 1, 321, 574)"><g clip-path="url(#42492689a1)"><g clip-path="url(#efe2dbb078)"><path fill="#b11e23" d="M 0.140625 0.875 L 13.429688 0.875 L 13.429688 74.066406 L 0.140625 74.066406 Z M 0.140625 0.875 " fill-opacity="1" fill-rule="nonzero"/></g></g></g></g><g clip-path="url(#307d30c1cc)"><g transform="matrix(1, 0, 0, 1, 311, 574)"><g clip-path="url(#524fca1cd0)"><g clip-path="url(#791580ca01)"><path fill="#ffffff" d="M 0.292969 0.875 L 10.140625 0.875 L 10.140625 74.054688 L 0.292969 74.054688 Z M 0.292969 0.875 " fill-opacity="1" fill-rule="nonzero"/></g></g></g></g></svg>