<svg xmlns="http://www.w3.org/2000/svg" width="1000" viewBox="0 0 750 779.25" height="1039" version="1.0"><path fill="#fffffff" d="M742.707 509.45a1301 1301 0 0 0-23.2-76.345c-.64-1.921-1.76-3.683-3.359-4.8-24.8-75.867-86.082-241.043-166.562-300.262-5.598-5.762-11.36-11.203-17.281-16.645-4-3.523-98.559-84.507-208.961-110.918-1.758-.48-3.52-.48-5.117 0-2.883.641-71.844 18.247-102.082 102.114-6.243 16.965-6.88 35.531-1.442 52.976 9.281 33.453 35.68 59.703 69.121 68.825 11.52 3.042 23.84-.16 32.48-8.32 9.442-8.966 23.52-11.048 35.04-5.126 16.8 6.242 35.523 5.762 52-1.277 3.84-1.762 8.16-1.602 11.844.476 22.878 11.688 48.32 36.336 39.359 86.91-.16.481-.16.962-.16 1.602l-4.16 115.559c-32.961-8.164-115.68-21.446-164 34.09-25.762-11.364-94.243-35.852-159.043-10.243-47.04 18.407-82.403 58.739-105.282 120.04-.16.64-.32 1.12-.48 1.761-.957 4.64-20.957 115.078 59.68 181.02a156.98 156.98 0 0 0 99.683 34.574c9.598 0 19.04-.8 28.48-2.402 18.72-2.88 37.278-7.364 55.36-13.125 9.441-3.2 19.68-3.68 29.441-1.758 56.957 11.523 210.079 20.324 403.04-147.57a368 368 0 0 0 32.96-37.774c14.082-18.086 18.723-41.453 12.641-63.383m-30.078 49.937c-9.442 12.164-19.68 23.847-30.402 34.89-184.801 161.016-329.762 153.012-383.524 142.13a80.9 80.9 0 0 0-40.957 2.402c-16.96 5.441-34.402 9.601-52 12.324-39.043 7.199-79.363-2.723-110.562-27.371-66.72-54.578-53.602-148.848-52-158.774 20.64-54.578 51.52-90.27 92.16-106.273 54.398-21.45 112.48-2.563 138.082 8.32a168.47 168.47 0 0 0-21.762 85.63c-.16 6.081 4.64 11.202 10.719 11.362h.32c5.922 0 10.883-4.8 11.043-10.722-.64-29.93 7.84-59.22 24.16-84.188.32-.48.637-.8.957-1.281 49.121-64.34 157.282-28.969 158.403-28.649.96.32 2.082.481 3.199.641 6.082.16 11.2-4.48 11.52-10.723l4.64-129.003c11.84-69.145-31.84-99.715-51.2-109.637-10.081-5.442-22.081-5.602-32.32-.48-10.718 4.16-22.558 4.16-33.44.32-19.52-9.285-42.72-5.602-58.24 9.28-3.038 3.044-7.359 4.325-11.519 3.364-26.242-7.363-46.883-27.851-54.082-54.258-3.84-12.644-3.52-26.25 1.121-38.734 12.801-40.492 43.84-72.824 84-87.23 104 25.77 196 104.515 196.801 105.156a399 399 0 0 1 46.242 49.617c.637.8 1.598 1.602 2.399 2.238 12 15.207 25.601 34.094 39.84 57.14.32 1.122.64 2.083 1.28 3.204 5.438 9.121 10.88 18.246 16 27.527a11.8 11.8 0 0 0 2.56 3.043c10.081 18.246 20.48 38.57 30.562 61.141 0 1.598.316 3.2 1.117 4.64 4.64 10.243 8.961 20.165 12.961 30.09.64 1.442 1.441 2.559 2.398 3.68 8.48 20.969 16.801 43.535 24.801 67.703.16.801.32 1.442.48 2.242 10.723 31.692 18.243 58.258 22.88 75.063 4.16 15.367.96 31.691-8.637 44.176m0 0"/><path fill="#fff" d="M525.586 602.922c-5.441-2.883-12.16-.961-15.04 4.48-11.198 19.207-26.401 35.532-44.8 48.176-40.8 28.012-89.922 31.692-145.922 11.047-5.758-2.082-12.16.797-14.238 6.559-2.082 5.765.8 12.164 6.559 14.246 23.84 9.285 49.12 14.086 74.722 14.406 98.559 0 142.88-83.23 143.36-84.188 2.718-5.445.64-11.843-4.641-14.726m0 0"/><path fill="#fff" d="M742.707 509.45a1301 1301 0 0 0-23.2-76.345c-.64-1.921-1.76-3.683-3.359-4.8-24.8-75.867-86.082-241.043-166.562-300.262-5.598-5.762-11.36-11.203-17.281-16.645-4-3.523-98.559-84.507-208.961-110.918-1.758-.48-3.52-.48-5.117 0-2.883.641-71.844 18.247-102.082 102.114-6.243 16.965-6.88 35.531-1.442 52.976 9.281 33.453 35.68 59.703 69.121 68.825 11.52 3.042 23.84-.16 32.48-8.32 9.442-8.966 23.52-11.048 35.04-5.126 16.8 6.242 35.523 5.762 52-1.277 3.84-1.762 8.16-1.602 11.844.476 22.878 11.688 48.32 36.336 39.359 86.91-.16.481-.16.962-.16 1.602l-4.16 115.559c-32.961-8.164-115.68-21.446-164 34.09-25.762-11.364-94.243-35.852-159.043-10.243-47.04 18.407-82.403 58.739-105.282 120.04-.16.64-.32 1.12-.48 1.761-.957 4.64-20.957 115.078 59.68 181.02a156.98 156.98 0 0 0 99.683 34.574c9.598 0 19.04-.8 28.48-2.402 18.72-2.88 37.278-7.364 55.36-13.125 9.441-3.2 19.68-3.68 29.441-1.758 56.957 11.523 210.079 20.324 403.04-147.57a368 368 0 0 0 32.96-37.774c14.082-18.086 18.723-41.453 12.641-63.383m-30.078 49.937c-9.442 12.164-19.68 23.847-30.402 34.89-184.801 161.016-329.762 153.012-383.524 142.13a80.9 80.9 0 0 0-40.957 2.402c-16.96 5.441-34.402 9.601-52 12.324-39.043 7.199-79.363-2.723-110.562-27.371-66.72-54.578-53.602-148.848-52-158.774 20.64-54.578 51.52-90.27 92.16-106.273 54.398-21.45 112.48-2.563 138.082 8.32a168.47 168.47 0 0 0-21.762 85.63c-.16 6.081 4.64 11.202 10.719 11.362h.32c5.922 0 10.883-4.8 11.043-10.722-.64-29.93 7.84-59.22 24.16-84.188.32-.48.637-.8.957-1.281 49.121-64.34 157.282-28.969 158.403-28.649.96.32 2.082.481 3.199.641 6.082.16 11.2-4.48 11.52-10.723l4.64-129.003c11.84-69.145-31.84-99.715-51.2-109.637-10.081-5.442-22.081-5.602-32.32-.48-10.718 4.16-22.558 4.16-33.44.32-19.52-9.285-42.72-5.602-58.24 9.28-3.038 3.044-7.359 4.325-11.519 3.364-26.242-7.363-46.883-27.851-54.082-54.258-3.84-12.644-3.52-26.25 1.121-38.734 12.801-40.492 43.84-72.824 84-87.23 104 25.77 196 104.515 196.801 105.156a399 399 0 0 1 46.242 49.617c.637.8 1.598 1.602 2.399 2.238 12 15.207 25.601 34.094 39.84 57.14.32 1.122.64 2.083 1.28 3.204 5.438 9.121 10.88 18.246 16 27.527a11.8 11.8 0 0 0 2.56 3.043c10.081 18.246 20.48 38.57 30.562 61.141 0 1.598.316 3.2 1.117 4.64 4.64 10.243 8.961 20.165 12.961 30.09.64 1.442 1.441 2.559 2.398 3.68 8.48 20.969 16.801 43.535 24.801 67.703.16.801.32 1.442.48 2.242 10.723 31.692 18.243 58.258 22.88 75.063 4.16 15.367.96 31.691-8.637 44.176m0 0"/><path fill="#fff" d="M525.586 602.922c-5.441-2.883-12.16-.961-15.04 4.48-11.198 19.207-26.401 35.532-44.8 48.176-40.8 28.012-89.922 31.692-145.922 11.047-5.758-2.082-12.16.797-14.238 6.559-2.082 5.765.8 12.164 6.559 14.246 23.84 9.285 49.12 14.086 74.722 14.406 98.559 0 142.88-83.23 143.36-84.188 2.718-5.445.64-11.843-4.641-14.726m0 0"/></svg>