<svg xmlns="http://www.w3.org/2000/svg" width="1920" viewBox="0 0 1440 810" height="1080" version="1.0"><defs><clipPath id="a"><path d="M510 162h418v484.879H510Zm0 0"/></clipPath></defs><g clip-path="url(#a)"><path fill="#fff" d="M515.668 569.883c4.703-.254 8.734-4.871 13.102-12.684 4.367-7.812 20.074-12.515 22.43-13.101 2.35-.59 1.76.5 1.76 1.343 0 .84-1.089 1.762-2.687 2.52-1.597.754-2.687.672-4.703 1.426-2.015.758-1.933 4.199-.925 2.605 1.007-1.597 4.957-1.262 8.402-2.855 3.441-1.598 4.617-6.973 4.953-7.813s1.262 0 3.95 0c2.687 0 1.765-1.43 1.093-2.101-.672-.672 0-1.09.418-1.68.418-.586 6.133-2.184 19.152-4.031 13.02-1.848 27.301-.168 42.586 1.511 15.29 1.68 23.016 1.43 33.602.168 10.582-1.257 25.449 1.344 30.574 1.68 5.121.336 11.758-2.433 14.11-4.535 2.35-2.102 3.695-4.79 9.242-8.484 5.543-3.696 12.851-11.508 12.851-11.508s.336.168 1.762 0c1.43-.168 1.43-1.93 4.285-4.2 2.855-2.269 11.422-11.675 18.816-20.16 7.391-8.484 15.454-22.68 15.454-22.68s3.445 3.614 9.914 8.485c6.464 4.871 10.246 6.047 13.773 8.906 3.527 2.856 3.445 1.594 3.445 1.594s3.614 1.094 11.172 4.285c7.559 3.192 18.567 11.676 19.906 12.852 1.348 1.176 0 9.238-.84 21.082-.835 11.844 2.606 21.758 6.555 28.14 3.946 6.383 11.758 33.43 14.278 40.993 2.52 7.558 4.117 22.004 3.949 22.593-.168.586-.676 1.512-.922 2.098-.254.59-.926 3.027-1.43 6.133-.504 3.11-.504 9.242 1.258 12.265 1.766 3.024-1.176 3.61-1.008 7.98.168 4.368 15.203 3.778 16.97 3.778 1.76 0 13.944-.504 25.87-1.593 11.926-1.094 21.758-4.372 31.668-9.493 9.914-5.125 6.383-9.242 4.2-11.425-2.184-2.184-6.887-1.68-15.876-1.762-8.988-.086-18.648-6.637-21.418-8.367-2.773-1.735-2.437-2.133-1.765-2.805s4.113 3.191 6.3 2.77c2.184-.418-1.011-1.344-4.199-3.864-3.195-2.52-3.699-.504-6.218-2.183-2.52-1.68-1.004-2.352-2.434-3.446-1.43-1.09-2.27-.332-2.86-.586-.585-.254-2.433-1.68-2.433-1.68s-3.11-9.07-6.89-20.241c-3.778-11.176-3.274-25.958-3.305-36.036-.032-10.082-4-27.05-4.418-35.113-.422-8.062-.254-12.851 1.422-16.969 1.683-4.113.757-9.742-2.602-14.11-3.36-4.366-2.77-9.155-8.902-15.288-6.133-6.133-9.325-11.254-9.66-11.844-.336-.586-1.598-1.008-1.176-1.848.418-.84.082-.921-1.344-2.183-1.43-1.258-6.3-7.727-11.676-12.516-5.375-4.789-14.445-14.531-14.535-14.953-.082-.418-5.625-5.289-6.465-6.465-.84-1.175-6.383-5.379-7.726-6.133-1.344-.757-.672-3.613-.422-4.789.254-1.175 1.933-10.918 3.023-13.859 1.094-2.937 2.352-7.14 2.942-9.66.586-2.52 3.109-8.82 5.625-15.707 2.523-6.887.843-7.727.843-7.727s6.047-1.008 9.91-2.437c3.864-1.426 6.465-4.45 9.743-5.88 3.277-1.429 9.324-3.023 11.09-4.366 1.761-1.344 4.285-2.184 5.46-2.184 1.176 0 4.618-.926 8.649-2.855 4.035-1.934 6.805-6.301 7.14-6.887.337-.59 2.356-1.18 2.942-3.113.59-1.93-.84-3.442-1.848-3.61-1.011-.168.418-1.93.754-2.687.336-.758.508-2.602-.5-3.696-1.011-1.093-2.355-.168-2.355-.168s.336-1.261 0-3.363c-.332-2.097-1.426-2.851-2.266-3.105-.844-.254-1.262-1.012-1.008-1.094.25-.082-.082-4.2-2.27-4.79-2.183-.585-4.452 1.767-4.452 1.767s-.168-2.434-.754-4.282c-.59-1.847-2.606-1.933-3.192.164-.59 2.102-1.597 2.524-2.183 3.282-.59.753-1.43.918-2.438 3.105-1.008 2.184-2.855 2.688-3.36 3.191-.503.504-2.269 2.016-2.769 3.946-.507 1.933-1.933 5.293-3.53 7.648-1.599 2.352-6.216 2.266-10.079.922-3.867-1.344-6.387-2.605-6.387-2.605s.59-5.036 2.692-8.399c2.097-3.36 3.359-18.648 3.273-19.656-.082-1.008.086-3.36 2.102-8.063 2.011-4.703-.254-13.777-1.512-17.722-1.262-3.95.336-3.613-1.594-10.332-1.937-6.719-9.578-10.082-9.578-10.082s4.617-1.176 11.254-.672c6.637.508 7.394-4.031 6.637-6.047-.754-2.016-.168-2.941 1.43-5.293 1.593-2.352-1.43-2.855-2.692-4.79-1.258-1.929 1.43-2.433 3.613-2.6 2.184-.169 2.352-1.762 2.524-2.688.164-.922 1.004-3.106 1.34-3.106.335 0 2.183.336 4.03-1.347 1.848-1.68-.921-5.711-3.359-8.989-2.433-3.273-1.007-3.527-1.09-5.375-.085-1.847 1.008-4.28 0-5.46-1.007-1.176-1.68-3.782-1.68-6.13 0-2.35-1.01-4.452-.671-4.452.336 0 2.012-2.016 1.887-3.864-.133-1.847-.965-5.207-1.215-6.133-.254-.921.336-1.511 1.004-2.27.676-.753-.5-4.534-.586-3.105-.082 1.426-2.52-.84-3.778-2.015-1.261-1.176-.421-.926-.925-2.774s-2.774-2.015-2.774-2.015.84.336 1.934 2.52c1.094 2.187-7.727-2.52-11.172-4.79-3.445-2.265-4.117-2.601-12.012-3.61-7.894-1.007-.758-.421-1.933-1.51-1.176-1.095-2.098.417-7.64 1.26-5.548.837.417-1.26-.759-1.26s-4.285 2.855-4.453 1.929c-.164-.922-1.09-.25-1.09-.25 1.09.25-1.261 2.605-3.695 2.605-2.438 0-3.023 2.184-3.023 2.184.335-.172 7.136-2.438 2.687 0-4.453 2.433-9.828 9.91-11.09 19.656-1.258 9.742.086 20.578 1.766 27.8 1.68 7.224-1.176 14.45-1.43 16.13-.25 1.68-1.762 1.426-8.566 3.863s-6.469 3.527-7.98 5.629c-1.512 2.098-2.856 1.594-5.88 2.098s-10.332 5.472-10.332 5.472c-3.445 2.098-8.988 4.61-17.808 8.977s-18.48 11.34-26.121 15.957c-7.645 4.621-11.09 9.242-15.457 12.012-4.368 2.773-.336 12.683 3.109 23.437 3.441 10.75 11.844 18.899 17.219 25.031 5.375 6.133 14.445 18.563 17.218 20.914 2.774 2.352.168 6.723.168 11.004 0 4.285 4.286 7.813 4.454 8.57.168.755 1.257 3.61 1.425 3.946s.672 1.262-.168 2.351c-.84 1.094-3.945 6.133-5.879 9.997S716 399.535 716 399.535c-6.215 10.332-1.344 29.317-.84 32.172.504 2.856-1.512 4.113-2.265 5.711-.758 1.598-6.973 10.922-12.266 18.984-5.29 8.063-12.766 25.618-13.524 26.793-.753 1.18-.25 3.446-.25 3.446s-2.355 3.527-4.367 5.543c-2.02 2.015-4.707 5.546-6.468 6.722-1.766 1.176-4.872-.254-13.106-2.855-8.23-2.606-16.797-1.598-23.687-1.852-6.887-.25-14.868 4.54-18.649 6.133-3.777 1.598-17.387 4.285-26.289 6.383-8.902 2.101-21.422 4.035-21.672 4.035s-.758-1.848-3.695-4.035c-2.942-2.184-6.469-4.953-10.754-7.727-4.281-2.77-3.863-5.46-8.816-7.39-4.957-1.934-9.493 8.484-11.004 12.597-1.512 4.118-8.907 16.047-13.696 23.27-4.785 7.222-10.668 22.008-13.02 28.558-2.35 6.551-.671 14.114 4.036 13.86M718.016 312.43c-1.09-8.317-2.856-15.121-2.602-15.121.25 0 13.86.253 16.211-.586 0 0-1.008 15.62 0 27.804 1.008 12.176 3.445 23.012 3.445 23.012s-3.36-5.035-7.898-12.094c-4.535-7.054-8.063-14.699-9.156-23.015"/></g></svg>