<svg xmlns="http://www.w3.org/2000/svg" xmlns:xlink="http://www.w3.org/1999/xlink" width="500" zoomAndPan="magnify" viewBox="0 0 375 374.999991" height="500" preserveAspectRatio="xMidYMid meet" version="1.0"><defs><clipPath id="83ec434b94"><path d="M 18.75 18.75 L 356.25 18.75 L 356.25 356.25 L 18.75 356.25 Z M 18.75 18.75 " clip-rule="nonzero"/></clipPath><clipPath id="477bb947ed"><path d="M 187.5 18.75 C 94.300781 18.75 18.75 94.300781 18.75 187.5 C 18.75 280.699219 94.300781 356.25 187.5 356.25 C 280.699219 356.25 356.25 280.699219 356.25 187.5 C 356.25 94.300781 280.699219 18.75 187.5 18.75 Z M 187.5 18.75 " clip-rule="nonzero"/></clipPath><clipPath id="73a03a13d2"><path d="M 64.589844 64.589844 L 310.402344 64.589844 L 310.402344 310.402344 L 64.589844 310.402344 Z M 64.589844 64.589844 " clip-rule="nonzero"/></clipPath><clipPath id="7513140960"><path d="M 187.496094 64.589844 C 119.613281 64.589844 64.589844 119.613281 64.589844 187.496094 C 64.589844 255.375 119.613281 310.402344 187.496094 310.402344 C 255.375 310.402344 310.402344 255.375 310.402344 187.496094 C 310.402344 119.613281 255.375 64.589844 187.496094 64.589844 Z M 187.496094 64.589844 " clip-rule="nonzero"/></clipPath><clipPath id="bcea4faad7"><path d="M 111.671875 111.671875 L 263.171875 111.671875 L 263.171875 263.171875 L 111.671875 263.171875 Z M 111.671875 111.671875 " clip-rule="nonzero"/></clipPath><clipPath id="19699cd318"><path d="M 187.496094 111.671875 C 145.617188 111.671875 111.671875 145.617188 111.671875 187.496094 C 111.671875 229.375 145.617188 263.324219 187.496094 263.324219 C 229.375 263.324219 263.324219 229.375 263.324219 187.496094 C 263.324219 145.617188 229.375 111.671875 187.496094 111.671875 Z M 187.496094 111.671875 " clip-rule="nonzero"/></clipPath><clipPath id="c5901a68f2"><path d="M 156.636719 156.636719 L 218.363281 156.636719 L 218.363281 218.363281 L 156.636719 218.363281 Z M 156.636719 156.636719 " clip-rule="nonzero"/></clipPath><clipPath id="c9dc33f51c"><path d="M 187.5 156.636719 C 170.453125 156.636719 156.636719 170.453125 156.636719 187.5 C 156.636719 204.546875 170.453125 218.363281 187.5 218.363281 C 204.546875 218.363281 218.363281 204.546875 218.363281 187.5 C 218.363281 170.453125 204.546875 156.636719 187.5 156.636719 Z M 187.5 156.636719 " clip-rule="nonzero"/></clipPath><clipPath id="675977a408"><path d="M 0.636719 0.636719 L 62.363281 0.636719 L 62.363281 62.363281 L 0.636719 62.363281 Z M 0.636719 0.636719 " clip-rule="nonzero"/></clipPath><clipPath id="2de55155af"><path d="M 31.5 0.636719 C 14.453125 0.636719 0.636719 14.453125 0.636719 31.5 C 0.636719 48.546875 14.453125 62.363281 31.5 62.363281 C 48.546875 62.363281 62.363281 48.546875 62.363281 31.5 C 62.363281 14.453125 48.546875 0.636719 31.5 0.636719 Z M 31.5 0.636719 " clip-rule="nonzero"/></clipPath><clipPath id="184f960bcb"><rect x="0" width="63" y="0" height="63"/></clipPath><clipPath id="13b6189cf0"><path d="M 156.636719 156.636719 L 218.136719 156.636719 L 218.136719 218.136719 L 156.636719 218.136719 Z M 156.636719 156.636719 " clip-rule="nonzero"/></clipPath><clipPath id="ec05678af6"><path d="M 187.5 156.636719 C 170.453125 156.636719 156.636719 170.453125 156.636719 187.5 C 156.636719 204.542969 170.453125 218.359375 187.5 218.359375 C 204.542969 218.359375 218.359375 204.542969 218.359375 187.5 C 218.359375 170.453125 204.542969 156.636719 187.5 156.636719 Z M 187.5 156.636719 " clip-rule="nonzero"/></clipPath><clipPath id="656be197ef"><path d="M 186 9 L 363 9 L 363 187 L 186 187 Z M 186 9 " clip-rule="nonzero"/></clipPath><clipPath id="3c2e4690fb"><path d="M 301.964844 2.871094 L 369.613281 70.519531 L 221.414062 218.71875 L 153.765625 151.070312 Z M 301.964844 2.871094 " clip-rule="nonzero"/></clipPath><clipPath id="d5b8daed9a"><path d="M 187.082031 178.757812 L 287.945312 17.796875 C 290.652344 13.480469 295.175781 10.632812 300.238281 10.058594 C 305.296875 9.484375 310.34375 11.25 313.945312 14.851562 L 357.632812 58.535156 C 361.234375 62.140625 362.996094 67.1875 362.425781 72.246094 C 361.851562 77.308594 359.003906 81.832031 354.6875 84.539062 L 193.726562 185.398438 C 191.824219 186.59375 189.347656 186.3125 187.761719 184.722656 C 186.171875 183.136719 185.890625 180.660156 187.082031 178.757812 Z M 187.082031 178.757812 " clip-rule="nonzero"/></clipPath><clipPath id="81706c2213"><path d="M 0 0.359375 L 177 0.359375 L 177 177.71875 L 0 177.71875 Z M 0 0.359375 " clip-rule="nonzero"/></clipPath><clipPath id="7dce02542b"><path d="M 115.964844 -6.128906 L 183.613281 61.519531 L 35.414062 209.71875 L -32.234375 142.070312 Z M 115.964844 -6.128906 " clip-rule="nonzero"/></clipPath><clipPath id="037fef4a70"><path d="M 1.082031 169.757812 L 101.945312 8.796875 C 104.652344 4.480469 109.175781 1.632812 114.238281 1.058594 C 119.296875 0.484375 124.34375 2.25 127.945312 5.851562 L 171.632812 49.535156 C 175.234375 53.140625 176.996094 58.1875 176.425781 63.246094 C 175.851562 68.308594 173.003906 72.832031 168.6875 75.539062 L 7.726562 176.398438 C 5.824219 177.59375 3.347656 177.3125 1.761719 175.722656 C 0.171875 174.136719 -0.109375 171.660156 1.082031 169.757812 Z M 1.082031 169.757812 " clip-rule="nonzero"/></clipPath><clipPath id="fcb5a90dce"><rect x="0" width="177" y="0" height="178"/></clipPath><clipPath id="8345b06e23"><path d="M 281 10 L 363 10 L 363 93 L 281 93 Z M 281 10 " clip-rule="nonzero"/></clipPath><clipPath id="6b3b04b4a0"><path d="M 311.808594 10.816406 L 362.882812 61.894531 L 306.820312 117.957031 L 255.742188 66.882812 Z M 311.808594 10.816406 " clip-rule="nonzero"/></clipPath><clipPath id="020c5ffd5e"><path d="M 281.398438 92.304688 L 311.808594 10.816406 L 362.882812 61.894531 Z M 281.398438 92.304688 " clip-rule="nonzero"/></clipPath><clipPath id="5dc79f942e"><path d="M 0.28125 0.800781 L 82 0.800781 L 82 82.398438 L 0.28125 82.398438 Z M 0.28125 0.800781 " clip-rule="nonzero"/></clipPath><clipPath id="097b817b6a"><path d="M 30.808594 0.816406 L 81.882812 51.894531 L 25.820312 107.957031 L -25.257812 56.882812 Z M 30.808594 0.816406 " clip-rule="nonzero"/></clipPath><clipPath id="c0b3afa761"><path d="M 0.398438 82.304688 L 30.808594 0.816406 L 81.882812 51.894531 Z M 0.398438 82.304688 " clip-rule="nonzero"/></clipPath><clipPath id="eb4609b7be"><rect x="0" width="82" y="0" height="83"/></clipPath></defs><g clip-path="url(#83ec434b94)"><g clip-path="url(#477bb947ed)"><path stroke-linecap="butt" transform="matrix(0.75, 0, 0, 0.75, 18.750003, 18.749999)" fill="none" stroke-linejoin="miter" d="M 225.00001 0.00000164167 C 100.734377 0.00000164167 -0.00000435833 100.734383 -0.00000435833 225.000016 C -0.00000435833 349.26565 100.734377 450.000031 225.00001 450.000031 C 349.265644 450.000031 450.000025 349.26565 450.000025 225.000016 C 450.000025 100.734383 349.265644 0.00000164167 225.00001 0.00000164167 Z M 225.00001 0.00000164167 " stroke="#b11e23" stroke-width="64" stroke-opacity="1" stroke-miterlimit="4"/></g></g><g clip-path="url(#73a03a13d2)"><g clip-path="url(#7513140960)"><path stroke-linecap="butt" transform="matrix(0.75, 0, 0, 0.75, 64.587941, 64.587937)" fill="none" stroke-linejoin="miter" d="M 163.877548 0.00254292 C 73.367125 0.00254292 0.00253692 73.367131 0.00253692 163.877554 C 0.00253692 254.382768 73.367125 327.752564 163.877548 327.752564 C 254.382762 327.752564 327.752558 254.382768 327.752558 163.877554 C 327.752558 73.367131 254.382762 0.00254292 163.877548 0.00254292 Z M 163.877548 0.00254292 " stroke="#b11e23" stroke-width="64" stroke-opacity="1" stroke-miterlimit="4"/></g></g><g clip-path="url(#bcea4faad7)"><g clip-path="url(#19699cd318)"><path stroke-linecap="butt" transform="matrix(0.75, 0, 0, 0.75, 111.670346, 111.670341)" fill="none" stroke-linejoin="miter" d="M 101.100997 0.00204471 C 45.262455 0.00204471 0.00203871 45.262461 0.00203871 101.101003 C 0.00203871 156.939545 45.262455 202.20517 101.100997 202.20517 C 156.939539 202.20517 202.205164 156.939545 202.205164 101.101003 C 202.205164 45.262461 156.939539 0.00204471 101.100997 0.00204471 Z M 101.100997 0.00204471 " stroke="#b11e23" stroke-width="64" stroke-opacity="1" stroke-miterlimit="4"/></g></g><g clip-path="url(#c5901a68f2)"><g clip-path="url(#c9dc33f51c)"><g transform="matrix(1, 0, 0, 1, 156, 156)"><g clip-path="url(#184f960bcb)"><g clip-path="url(#675977a408)"><g clip-path="url(#2de55155af)"><path fill="#b11e23" d="M 0.636719 0.636719 L 62.363281 0.636719 L 62.363281 62.363281 L 0.636719 62.363281 Z M 0.636719 0.636719 " fill-opacity="1" fill-rule="nonzero"/></g></g></g></g></g></g><g clip-path="url(#13b6189cf0)"><g clip-path="url(#ec05678af6)"><path stroke-linecap="butt" transform="matrix(0.75, 0, 0, 0.75, 156.637173, 156.637168)" fill="none" stroke-linejoin="miter" d="M 41.150439 -0.000599152 C 18.421271 -0.000599152 -0.000605152 18.421277 -0.000605152 41.150445 C -0.000605152 63.874405 18.421271 82.296281 41.150439 82.296281 C 63.874399 82.296281 82.296275 63.874405 82.296275 41.150445 C 82.296275 18.421277 63.874399 -0.000599152 41.150439 -0.000599152 Z M 41.150439 -0.000599152 " stroke="#b11e23" stroke-width="64" stroke-opacity="1" stroke-miterlimit="4"/></g></g><g clip-path="url(#656be197ef)"><g clip-path="url(#3c2e4690fb)"><g clip-path="url(#d5b8daed9a)"><g transform="matrix(1, 0, 0, 1, 186, 9)"><g clip-path="url(#fcb5a90dce)"><g clip-path="url(#81706c2213)"><g clip-path="url(#7dce02542b)"><g clip-path="url(#037fef4a70)"><path fill="#eeba2b" d="M 113.097656 -8.996094 L 186.480469 64.386719 L 26.527344 224.339844 L -46.855469 150.957031 Z M 113.097656 -8.996094 " fill-opacity="1" fill-rule="nonzero"/></g></g></g></g></g></g></g></g><g clip-path="url(#8345b06e23)"><g clip-path="url(#6b3b04b4a0)"><g clip-path="url(#020c5ffd5e)"><g transform="matrix(1, 0, 0, 1, 281, 10)"><g clip-path="url(#eb4609b7be)"><g clip-path="url(#5dc79f942e)"><g clip-path="url(#097b817b6a)"><g clip-path="url(#c0b3afa761)"><path fill="#ffffff" d="M 30.808594 0.816406 L 81.882812 51.894531 L 26.019531 107.757812 L -25.054688 56.683594 Z M 30.808594 0.816406 " fill-opacity="1" fill-rule="nonzero"/></g></g></g></g></g></g></g></g></svg>