<svg xmlns="http://www.w3.org/2000/svg" xmlns:xlink="http://www.w3.org/1999/xlink" width="500" zoomAndPan="magnify" viewBox="0 0 375 374.999991" height="500" preserveAspectRatio="xMidYMid meet" version="1.0"><defs><clipPath id="482d271daa"><path d="M 0 64 L 253 64 L 253 318 L 0 318 Z M 0 64 " clip-rule="nonzero"/></clipPath><clipPath id="8bbfde7e6a"><path d="M 126.5 64.46875 L 253.25 191.21875 L 126.5 317.96875 L -0.25 191.21875 Z M 126.5 64.46875 " clip-rule="nonzero"/></clipPath><clipPath id="b7fe1592cd"><path d="M 126.5 64.46875 L 253 190.972656 L 126.5 317.472656 L 0 190.972656 Z M 126.5 64.46875 " clip-rule="nonzero"/></clipPath><clipPath id="3c42cb2118"><path d="M 121 57 L 375 57 L 375 311 L 121 311 Z M 121 57 " clip-rule="nonzero"/></clipPath><clipPath id="7d312df80f"><path d="M 248.496094 57.527344 L 375.246094 184.277344 L 248.496094 311.023438 L 121.75 184.277344 Z M 248.496094 57.527344 " clip-rule="nonzero"/></clipPath><clipPath id="049f5e41ab"><path d="M 248.496094 57.527344 L 374.996094 184.027344 L 248.496094 310.527344 L 121.996094 184.027344 Z M 248.496094 57.527344 " clip-rule="nonzero"/></clipPath></defs><g clip-path="url(#482d271daa)"><g clip-path="url(#8bbfde7e6a)"><g clip-path="url(#b7fe1592cd)"><path stroke-linecap="butt" transform="matrix(0.53033, 0.53033, -0.53033, 0.53033, 126.500636, 64.470553)" fill="none" stroke-linejoin="miter" d="M -0.00229928 -0.00109967 L 238.532086 0.00258318 L 238.532086 238.533285 L 0.00138356 238.533285 Z M -0.00229928 -0.00109967 " stroke="#b11e23" stroke-width="74" stroke-opacity="1" stroke-miterlimit="4"/></g></g></g><g clip-path="url(#3c42cb2118)"><g clip-path="url(#7d312df80f)"><g clip-path="url(#049f5e41ab)"><path stroke-linecap="butt" transform="matrix(0.53033, 0.53033, -0.53033, 0.53033, 248.497692, 57.527175)" fill="none" stroke-linejoin="miter" d="M -0.00134832 0.00166572 L 238.529354 0.00166572 L 238.529354 238.532368 L -0.00134832 238.532368 Z M -0.00134832 0.00166572 " stroke="#e4a905" stroke-width="74" stroke-opacity="1" stroke-miterlimit="4"/></g></g></g></svg>