<svg xmlns="http://www.w3.org/2000/svg" xmlns:xlink="http://www.w3.org/1999/xlink" width="500" zoomAndPan="magnify" viewBox="0 0 375 374.999991" height="500" preserveAspectRatio="xMidYMid meet" version="1.0"><defs><clipPath id="dbf47abb01"><path d="M 34 168 L 340 168 L 340 229 L 34 229 Z M 34 168 " clip-rule="nonzero"/></clipPath><clipPath id="db84682d01"><path d="M 35.335938 165.46875 L 341.117188 172.390625 L 339.84375 228.628906 L 34.0625 221.703125 Z M 35.335938 165.46875 " clip-rule="nonzero"/></clipPath><clipPath id="c392092841"><path d="M 339.664062 228.625 C 340.355469 197.992188 271.363281 170.8125 188.136719 168.925781 C 104.910156 167.042969 34.757812 191.074219 34.0625 221.703125 L 118.90625 223.625 C 119.214844 210 150.414062 199.316406 187.429688 200.152344 C 224.445312 200.992188 255.128906 213.078125 254.820312 226.703125 Z M 339.664062 228.625 " clip-rule="nonzero"/></clipPath><clipPath id="5156e2551c"><path d="M 0 0 L 306 0 L 306 60.71875 L 0 60.71875 Z M 0 0 " clip-rule="nonzero"/></clipPath><clipPath id="1685433ed0"><path d="M 1.335938 -2.53125 L 307.117188 4.390625 L 305.84375 60.628906 L 0.0625 53.703125 Z M 1.335938 -2.53125 " clip-rule="nonzero"/></clipPath><clipPath id="19462350c0"><path d="M 305.664062 60.625 C 306.355469 29.992188 237.363281 2.8125 154.136719 0.925781 C 70.910156 -0.957031 0.757812 23.074219 0.0625 53.703125 L 84.90625 55.625 C 85.214844 42 116.414062 31.316406 153.429688 32.152344 C 190.445312 32.992188 221.128906 45.078125 220.820312 58.703125 Z M 305.664062 60.625 " clip-rule="nonzero"/></clipPath><clipPath id="a25aa7c4d5"><rect x="0" width="306" y="0" height="61"/></clipPath><clipPath id="8f335c7a8f"><path d="M 73.28125 17.660156 L 301.71875 17.660156 L 301.71875 246.097656 L 73.28125 246.097656 Z M 73.28125 17.660156 " clip-rule="nonzero"/></clipPath><clipPath id="337d6d2649"><path d="M 187.5 17.660156 C 124.417969 17.660156 73.28125 68.796875 73.28125 131.878906 C 73.28125 194.960938 124.417969 246.097656 187.5 246.097656 C 250.582031 246.097656 301.71875 194.960938 301.71875 131.878906 C 301.71875 68.796875 250.582031 17.660156 187.5 17.660156 Z M 187.5 17.660156 " clip-rule="nonzero"/></clipPath><clipPath id="284c25ae65"><path d="M 0.28125 0.660156 L 228.71875 0.660156 L 228.71875 229.097656 L 0.28125 229.097656 Z M 0.28125 0.660156 " clip-rule="nonzero"/></clipPath><clipPath id="e6e591526b"><path d="M 114.5 0.660156 C 51.417969 0.660156 0.28125 51.796875 0.28125 114.878906 C 0.28125 177.960938 51.417969 229.097656 114.5 229.097656 C 177.582031 229.097656 228.71875 177.960938 228.71875 114.878906 C 228.71875 51.796875 177.582031 0.660156 114.5 0.660156 Z M 114.5 0.660156 " clip-rule="nonzero"/></clipPath><clipPath id="fa9ddd8cbc"><rect x="0" width="229" y="0" height="230"/></clipPath><clipPath id="41c4218c59"><path d="M 111.332031 55.710938 L 263.667969 55.710938 L 263.667969 208.046875 L 111.332031 208.046875 Z M 111.332031 55.710938 " clip-rule="nonzero"/></clipPath><clipPath id="b952133af1"><path d="M 187.5 55.710938 C 145.433594 55.710938 111.332031 89.8125 111.332031 131.878906 C 111.332031 173.945312 145.433594 208.046875 187.5 208.046875 C 229.566406 208.046875 263.667969 173.945312 263.667969 131.878906 C 263.667969 89.8125 229.566406 55.710938 187.5 55.710938 Z M 187.5 55.710938 " clip-rule="nonzero"/></clipPath><clipPath id="14d749e105"><path d="M 0.332031 0.710938 L 152.667969 0.710938 L 152.667969 153.046875 L 0.332031 153.046875 Z M 0.332031 0.710938 " clip-rule="nonzero"/></clipPath><clipPath id="2d399b269e"><path d="M 76.5 0.710938 C 34.433594 0.710938 0.332031 34.8125 0.332031 76.878906 C 0.332031 118.945312 34.433594 153.046875 76.5 153.046875 C 118.566406 153.046875 152.667969 118.945312 152.667969 76.878906 C 152.667969 34.8125 118.566406 0.710938 76.5 0.710938 Z M 76.5 0.710938 " clip-rule="nonzero"/></clipPath><clipPath id="74a6a8f1bb"><rect x="0" width="153" y="0" height="154"/></clipPath><clipPath id="68e313c270"><path d="M 80 261 L 286 261 L 286 296 L 80 296 Z M 80 261 " clip-rule="nonzero"/></clipPath><clipPath id="b11e6796f7"><path d="M 81.582031 259.15625 L 286.347656 263.222656 L 285.710938 295.425781 L 80.941406 291.363281 Z M 81.582031 259.15625 " clip-rule="nonzero"/></clipPath><clipPath id="ed1ff859a3"><path d="M 285.707031 295.425781 C 286.050781 277.953125 239.726562 262.421875 183.960938 261.316406 C 128.195312 260.207031 81.289062 273.890625 80.941406 291.363281 L 137.789062 292.492188 C 137.945312 284.722656 158.804688 278.636719 183.605469 279.128906 C 208.410156 279.621094 229.011719 286.527344 228.855469 294.300781 Z M 285.707031 295.425781 " clip-rule="nonzero"/></clipPath><clipPath id="5ae904823f"><path d="M 0.878906 0 L 206 0 L 206 34.441406 L 0.878906 34.441406 Z M 0.878906 0 " clip-rule="nonzero"/></clipPath><clipPath id="a373b499ce"><path d="M 1.582031 -1.84375 L 206.347656 2.222656 L 205.710938 34.425781 L 0.941406 30.363281 Z M 1.582031 -1.84375 " clip-rule="nonzero"/></clipPath><clipPath id="be6b946681"><path d="M 205.707031 34.425781 C 206.050781 16.953125 159.726562 1.421875 103.960938 0.316406 C 48.195312 -0.792969 1.289062 12.890625 0.941406 30.363281 L 57.789062 31.492188 C 57.945312 23.722656 78.804688 17.636719 103.605469 18.128906 C 128.410156 18.621094 149.011719 25.527344 148.855469 33.300781 Z M 205.707031 34.425781 " clip-rule="nonzero"/></clipPath><clipPath id="f651435718"><rect x="0" width="206" y="0" height="35"/></clipPath><clipPath id="36fd24f77e"><path d="M 35 227 L 341 227 L 341 288 L 35 288 Z M 35 227 " clip-rule="nonzero"/></clipPath><clipPath id="b3b2fb49d8"><path d="M 339.535156 291.191406 L 33.769531 283.601562 L 35.164062 227.367188 L 340.929688 234.960938 Z M 339.535156 291.191406 " clip-rule="nonzero"/></clipPath><clipPath id="74a57885de"><path d="M 35.347656 227.375 C 34.589844 258.003906 103.519531 285.332031 186.742188 287.398438 C 269.964844 289.464844 340.171875 265.589844 340.929688 234.960938 L 256.09375 232.855469 C 255.753906 246.476562 224.53125 257.09375 187.519531 256.175781 C 150.507812 255.257812 119.847656 243.101562 120.1875 229.480469 Z M 35.347656 227.375 " clip-rule="nonzero"/></clipPath><clipPath id="62c985e6b2"><path d="M 0 0.28125 L 306 0.28125 L 306 61 L 0 61 Z M 0 0.28125 " clip-rule="nonzero"/></clipPath><clipPath id="be0e7723d4"><path d="M 304.535156 64.191406 L -1.230469 56.601562 L 0.164062 0.367188 L 305.929688 7.960938 Z M 304.535156 64.191406 " clip-rule="nonzero"/></clipPath><clipPath id="23a6513a9a"><path d="M 0.347656 0.375 C -0.410156 31.003906 68.519531 58.332031 151.742188 60.398438 C 234.964844 62.464844 305.171875 38.589844 305.929688 7.960938 L 221.09375 5.855469 C 220.753906 19.476562 189.53125 30.09375 152.519531 29.175781 C 115.507812 28.257812 84.847656 16.101562 85.1875 2.480469 Z M 0.347656 0.375 " clip-rule="nonzero"/></clipPath><clipPath id="2460a7fd69"><rect x="0" width="306" y="0" height="61"/></clipPath><clipPath id="f46add2607"><path d="M 82 297 L 288 297 L 288 357 L 82 357 Z M 82 297 " clip-rule="nonzero"/></clipPath><clipPath id="82de1d3e76"><path d="M 285.675781 358.5 L 80.734375 353.414062 L 82.128906 297.179688 L 287.070312 302.269531 Z M 285.675781 358.5 " clip-rule="nonzero"/></clipPath><clipPath id="a99bf1de05"><path d="M 82.332031 297.1875 C 81.570312 327.816406 127.546875 354.574219 183.304688 355.960938 C 239.066406 357.34375 286.3125 332.898438 287.070312 302.269531 L 230.230469 300.855469 C 229.890625 314.480469 208.878906 325.351562 184.082031 324.734375 C 159.28125 324.121094 138.835938 312.21875 139.175781 298.597656 Z M 82.332031 297.1875 " clip-rule="nonzero"/></clipPath><clipPath id="85d8fa75b5"><path d="M 0 0.121094 L 205.28125 0.121094 L 205.28125 60 L 0 60 Z M 0 0.121094 " clip-rule="nonzero"/></clipPath><clipPath id="3438f438b4"><path d="M 203.675781 61.5 L -1.265625 56.414062 L 0.128906 0.179688 L 205.070312 5.269531 Z M 203.675781 61.5 " clip-rule="nonzero"/></clipPath><clipPath id="266f93672c"><path d="M 0.332031 0.1875 C -0.429688 30.816406 45.546875 57.574219 101.304688 58.960938 C 157.066406 60.34375 204.3125 35.898438 205.070312 5.269531 L 148.230469 3.855469 C 147.890625 17.480469 126.878906 28.351562 102.082031 27.734375 C 77.28125 27.121094 56.835938 15.21875 57.175781 1.597656 Z M 0.332031 0.1875 " clip-rule="nonzero"/></clipPath><clipPath id="867aec7c4f"><rect x="0" width="206" y="0" height="60"/></clipPath></defs><g clip-path="url(#dbf47abb01)"><g clip-path="url(#db84682d01)"><g clip-path="url(#c392092841)"><g transform="matrix(1, 0, 0, 1, 34, 168)"><g clip-path="url(#a25aa7c4d5)"><g clip-path="url(#5156e2551c)"><g clip-path="url(#1685433ed0)"><g clip-path="url(#19462350c0)"><path fill="#b11e23" d="M 1.335938 -2.53125 L 306.898438 4.386719 L 305.625 60.621094 L 0.0625 53.703125 Z M 1.335938 -2.53125 " fill-opacity="1" fill-rule="nonzero"/></g></g></g></g></g></g></g></g><g clip-path="url(#8f335c7a8f)"><g clip-path="url(#337d6d2649)"><g transform="matrix(1, 0, 0, 1, 73, 17)"><g clip-path="url(#fa9ddd8cbc)"><g clip-path="url(#284c25ae65)"><g clip-path="url(#e6e591526b)"><path fill="#eeba2b" d="M 0.28125 0.660156 L 228.71875 0.660156 L 228.71875 229.097656 L 0.28125 229.097656 Z M 0.28125 0.660156 " fill-opacity="1" fill-rule="nonzero"/></g></g></g></g></g></g><g clip-path="url(#41c4218c59)"><g clip-path="url(#b952133af1)"><g transform="matrix(1, 0, 0, 1, 111, 55)"><g clip-path="url(#74a6a8f1bb)"><g clip-path="url(#14d749e105)"><g clip-path="url(#2d399b269e)"><path fill="#e4a905" d="M 0.332031 0.710938 L 152.667969 0.710938 L 152.667969 153.046875 L 0.332031 153.046875 Z M 0.332031 0.710938 " fill-opacity="1" fill-rule="nonzero"/></g></g></g></g></g></g><g clip-path="url(#68e313c270)"><g clip-path="url(#b11e6796f7)"><g clip-path="url(#ed1ff859a3)"><g transform="matrix(1, 0, 0, 1, 80, 261)"><g clip-path="url(#f651435718)"><g clip-path="url(#5ae904823f)"><g clip-path="url(#a373b499ce)"><g clip-path="url(#be6b946681)"><path fill="#b11e23" d="M 1.578125 -1.71875 L 206.347656 2.347656 L 205.710938 34.425781 L 0.941406 30.363281 Z M 1.578125 -1.71875 " fill-opacity="1" fill-rule="nonzero"/></g></g></g></g></g></g></g></g><g clip-path="url(#36fd24f77e)"><g clip-path="url(#b3b2fb49d8)"><g clip-path="url(#74a57885de)"><g transform="matrix(1, 0, 0, 1, 35, 227)"><g clip-path="url(#2460a7fd69)"><g clip-path="url(#62c985e6b2)"><g clip-path="url(#be0e7723d4)"><g clip-path="url(#23a6513a9a)"><path fill="#e4a905" d="M 304.535156 64.191406 L -1.011719 56.605469 L 0.386719 0.375 L 305.929688 7.960938 Z M 304.535156 64.191406 " fill-opacity="1" fill-rule="nonzero"/></g></g></g></g></g></g></g></g><g clip-path="url(#f46add2607)"><g clip-path="url(#82de1d3e76)"><g clip-path="url(#a99bf1de05)"><g transform="matrix(1, 0, 0, 1, 82, 297)"><g clip-path="url(#867aec7c4f)"><g clip-path="url(#85d8fa75b5)"><g clip-path="url(#3438f438b4)"><g clip-path="url(#266f93672c)"><path fill="#e4a905" d="M 203.675781 61.5 L -1.046875 56.417969 L 0.351562 0.1875 L 205.070312 5.269531 Z M 203.675781 61.5 " fill-opacity="1" fill-rule="nonzero"/></g></g></g></g></g></g></g></g></svg>